<svg width="50" height="50" viewBox="0 0 50 50" fill="none" xmlns="http://www.w3.org/2000/svg">
<path fill-rule="evenodd" clip-rule="evenodd" d="M46.3983 36.4145C45.6171 37.1954 44.3508 37.1951 43.5699 36.4139L24.9844 17.8213L6.39886 36.4139C5.61796 37.1951 4.35163 37.1954 3.57043 36.4145C2.78923 35.6336 2.78899 34.3673 3.56989 33.5861L23.5699 13.5784C23.945 13.2031 24.4538 12.9923 24.9844 12.9923C25.5149 12.9923 26.0238 13.2031 26.3989 13.5784L46.3989 33.5861C47.1798 34.3673 47.1795 35.6336 46.3983 36.4145Z" fill="black"/>
<path fill-rule="evenodd" clip-rule="evenodd" d="M47.1053 37.1217C45.9335 38.2931 44.034 38.2927 42.8626 37.1209L24.9844 19.2358L7.1061 37.1209C5.93475 38.2927 4.03526 38.2931 2.86346 37.1217C1.69167 35.9504 1.6913 34.0509 2.86265 32.8791L22.8626 12.8714C23.4253 12.3085 24.1885 11.9923 24.9844 11.9923C25.7802 11.9923 26.5435 12.3085 27.1061 12.8714L47.1061 32.8791C48.2775 34.0509 48.2771 35.9504 47.1053 37.1217ZM44.2771 35.707C44.6676 36.0976 45.3007 36.0977 45.6913 35.7072C46.0819 35.3168 46.0821 34.6836 45.6916 34.293L25.6916 14.2853C25.5041 14.0977 25.2497 13.9923 24.9844 13.9923C24.7191 13.9923 24.4647 14.0977 24.2771 14.2853L4.27713 34.293C3.88668 34.6836 3.8868 35.3168 4.2774 35.7072C4.668 36.0977 5.30117 36.0976 5.69162 35.707L24.2771 17.1143C24.4647 16.9267 24.7191 16.8213 24.9844 16.8213C25.2497 16.8213 25.5041 16.9267 25.6916 17.1143L44.2771 35.707Z" fill="black"/>
</svg>
