<svg width="50" height="50" viewBox="0 0 50 50" fill="none" xmlns="http://www.w3.org/2000/svg">
<path fill-rule="evenodd" clip-rule="evenodd" d="M13.5855 46.3983C12.8046 45.6171 12.8049 44.3508 13.5861 43.5699L32.1787 24.9844L13.5861 6.39886C12.8049 5.61796 12.8046 4.35163 13.5855 3.57043C14.3664 2.78923 15.6327 2.78899 16.4139 3.56989L36.4216 23.5699C36.7969 23.945 37.0077 24.4538 37.0077 24.9844C37.0077 25.5149 36.7969 26.0238 36.4216 26.3989L16.4139 46.3989C15.6327 47.1798 14.3664 47.1795 13.5855 46.3983Z" fill="black"/>
<path fill-rule="evenodd" clip-rule="evenodd" d="M12.8783 47.1053C11.7069 45.9335 11.7073 44.034 12.8791 42.8626L30.7642 24.9844L12.8791 7.1061C11.7073 5.93475 11.7069 4.03526 12.8783 2.86346C14.0496 1.69167 15.9491 1.6913 17.1209 2.86265L37.1286 22.8626C37.6915 23.4253 38.0077 24.1885 38.0077 24.9844C38.0077 25.7802 37.6915 26.5435 37.1286 27.1061L17.1209 47.1061C15.9491 48.2775 14.0496 48.2771 12.8783 47.1053ZM14.293 44.2771C13.9024 44.6676 13.9023 45.3007 14.2928 45.6913C14.6832 46.0819 15.3164 46.0821 15.707 45.6916L35.7147 25.6916C35.9023 25.5041 36.0077 25.2497 36.0077 24.9844C36.0077 24.7191 35.9023 24.4647 35.7147 24.2771L15.707 4.27713C15.3164 3.88668 14.6832 3.8868 14.2928 4.2774C13.9023 4.668 13.9024 5.30117 14.293 5.69162L32.8857 24.2771C33.0733 24.4647 33.1787 24.7191 33.1787 24.9844C33.1787 25.2497 33.0733 25.5041 32.8857 25.6916L14.293 44.2771Z" fill="black"/>
</svg>
