<svg width="50" height="50" viewBox="0 0 50 50" fill="none" xmlns="http://www.w3.org/2000/svg">
<path fill-rule="evenodd" clip-rule="evenodd" d="M36.4145 3.60168C37.1954 4.38288 37.1951 5.64921 36.4139 6.43011L17.8213 25.0156L36.4139 43.6011C37.1951 44.382 37.1954 45.6484 36.4145 46.4296C35.6336 47.2108 34.3673 47.211 33.5861 46.4301L13.5784 26.4301C13.2031 26.055 12.9923 25.5462 12.9923 25.0156C12.9923 24.4851 13.2031 23.9762 13.5784 23.6011L33.5861 3.60114C34.3673 2.82024 35.6336 2.82048 36.4145 3.60168Z" fill="black"/>
<path fill-rule="evenodd" clip-rule="evenodd" d="M37.1217 2.89471C38.2931 4.06651 38.2927 5.96601 37.1209 7.13735L19.2358 25.0156L37.1209 42.8939C38.2927 44.0652 38.2931 45.9647 37.1217 47.1365C35.9504 48.3083 34.0509 48.3087 32.8791 47.1374L12.8714 27.1374C12.3085 26.5747 11.9923 25.8115 11.9923 25.0156C11.9923 24.2198 12.3085 23.4565 12.8714 22.8939L32.8791 2.8939C34.0509 1.72255 35.9504 1.72291 37.1217 2.89471ZM35.707 5.72287C36.0976 5.33242 36.0977 4.69925 35.7072 4.30865C35.3168 3.91805 34.6836 3.91793 34.293 4.30838L14.2853 24.3084C14.0977 24.4959 13.9923 24.7503 13.9923 25.0156C13.9923 25.2809 14.0977 25.5353 14.2853 25.7229L34.293 45.7229C34.6836 46.1133 35.3168 46.1132 35.7072 45.7226C36.0977 45.332 36.0976 44.6988 35.707 44.3084L17.1143 25.7229C16.9267 25.5353 16.8213 25.2809 16.8213 25.0156C16.8213 24.7503 16.9267 24.4959 17.1143 24.3084L35.707 5.72287Z" fill="black"/>
</svg>
