<svg width="50" height="50" viewBox="0 0 50 50" fill="none" xmlns="http://www.w3.org/2000/svg">
<path d="M16.1451 43.0136H10.658C9.68787 43.0136 8.75743 42.6342 8.07142 41.9588C7.3854 41.2834 7 40.3674 7 39.4123V26.8075C7 25.8524 7.3854 24.9363 8.07142 24.2609C8.75743 23.5856 9.68787 23.2061 10.658 23.2061H16.1451M28.9483 19.6048V12.402C28.9483 10.9693 28.3702 9.5953 27.3411 8.58222C26.3121 7.56914 24.9165 7 23.4612 7L16.1451 23.2061V43.0136H36.7765C37.6587 43.0235 38.5147 42.719 39.187 42.1565C39.8592 41.594 40.3022 40.8112 40.4345 39.9525L42.9586 23.7463C43.0382 23.2302 43.0028 22.7032 42.8549 22.2018C42.7071 21.7004 42.4503 21.2367 42.1023 20.8428C41.7544 20.4488 41.3236 20.134 40.8398 19.9203C40.356 19.7065 39.8308 19.5989 39.3005 19.6048H28.9483Z" stroke="black" stroke-width="3.65203" stroke-linecap="round" stroke-linejoin="round"/>
</svg>
